<svg width="40" height="40" viewBox="0 0 40 40" fill="none" xmlns="http://www.w3.org/2000/svg">
<g clip-path="url(#clip0_27_24)">
<path d="M20 0C8.95312 0 0 8.95312 0 20C0 31.0469 8.95312 40 20 40C31.0469 40 40 31.0469 40 20C40 8.95312 31.0469 0 20 0ZM32.4844 32.4766C30.8594 34.1016 28.9766 35.375 26.875 36.2578C24.7031 37.1797 22.3906 37.6406 20 37.6406C17.6172 37.6406 15.3047 37.1719 13.125 36.2578C11.0234 35.3672 9.13281 34.0938 7.51562 32.4766C5.89062 30.8516 4.61719 28.9688 3.73438 26.8672C2.8125 24.6953 2.34375 22.3828 2.34375 20C2.34375 17.6172 2.8125 15.3047 3.72656 13.125C4.61719 11.0234 5.89062 9.13281 7.50781 7.51562C9.14062 5.89062 11.0234 4.61719 13.125 3.72656C15.3047 2.8125 17.6172 2.34375 20 2.34375C22.3828 2.34375 24.6953 2.8125 26.875 3.72656C28.9766 4.61719 30.8672 5.89063 32.4844 7.50781C34.1094 9.13281 35.3828 11.0156 36.2656 13.1172C37.1875 15.2891 37.6484 17.6016 37.6484 19.9922C37.6484 22.375 37.1797 24.6875 36.2656 26.8672C35.375 28.9688 34.1016 30.8594 32.4844 32.4766Z" fill="#0A0447"/>
<path d="M28.7109 16.1094C28.7812 14.539 28.5703 13.0156 28.0391 11.5312C27.9688 11.3437 27.8828 11.2734 27.6875 11.3281C27.25 11.4609 26.7969 11.5625 26.3672 11.7187C25.1797 12.1484 24.0937 12.7734 23.0391 13.4531C22.9297 13.5234 22.7656 13.5703 22.6328 13.5469C20.9062 13.2422 19.1719 13.2578 17.4375 13.5234C17.2656 13.5469 17.0469 13.5078 16.9062 13.4219C15.6797 12.625 14.4297 11.8437 13 11.4687C11.8203 11.1562 12.0625 11.0937 11.7266 12.164C11.3281 13.4453 11.1719 14.7734 11.2578 16.1172C11.2656 16.2109 11.1953 16.3281 11.1328 16.414C10.6172 17.0312 10.2187 17.7109 9.97656 18.4765C9.50781 19.9609 9.60156 21.4609 9.89844 22.9531C10.4844 25.8828 12.4609 27.9375 15.3828 28.4453C16.8906 28.7109 18.4453 28.7344 19.8594 28.8515C21.4375 28.7344 22.8984 28.7265 24.3203 28.5C26.8047 28.1015 28.6797 26.7812 29.6172 24.3828C29.9453 23.5469 30.125 22.6328 30.2344 21.7422C30.4766 19.7734 30.1406 17.9297 28.7969 16.375C28.75 16.3125 28.7109 16.2031 28.7109 16.1094ZM27.4297 24.539C27.1719 25.7578 26.4609 26.5937 25.2734 27.0234C24.125 27.4453 22.9375 27.6172 21.7266 27.6953C21.1406 27.7344 20.5547 27.7031 19.9687 27.7031C18.3906 27.7344 16.8125 27.6719 15.2891 27.2187C13.375 26.6484 12.5156 25.5078 12.4609 23.5078C12.4375 22.7969 12.5156 22.1094 12.8516 21.4687C13.5156 20.1797 14.6641 19.7266 16.0234 19.7031C16.7656 19.6953 17.5156 19.7578 18.2656 19.8281C19.8359 19.9687 21.3906 19.8203 22.9531 19.7344C23.6406 19.6953 24.3437 19.6797 25.0156 19.7969C26.4609 20.0469 27.5547 21.4844 27.5781 23.1015C27.5781 23.5781 27.5234 24.0703 27.4297 24.539Z" fill="#0A0447"/>
<path d="M15.5547 21.8594C15.125 22.3047 14.9766 22.8672 14.9531 23.3672C14.9531 24.1172 15.1719 24.7187 15.5547 25.1094C16.0859 25.6484 16.8125 25.6328 17.3203 25.0859C18.0859 24.2578 18.0781 22.7031 17.3203 21.8828C16.8125 21.3281 16.0703 21.3203 15.5547 21.8594Z" fill="#0A0447"/>
<path d="M22.75 21.7969C21.875 22.6015 21.875 24.375 22.75 25.1719C23.2578 25.6328 23.9453 25.6094 24.4219 25.1172C24.8594 24.664 25.0156 24.0937 25.0312 23.4765C25.0156 22.8594 24.8594 22.2969 24.4141 21.8437C23.9375 21.3516 23.25 21.3359 22.75 21.7969Z" fill="#0A0447"/>
</g>
<defs>
<clipPath id="clip0_27_24">
<rect width="40" height="40" fill="white"/>
</clipPath>
</defs>
</svg>
