<svg width="137" height="15" viewBox="0 0 137 15" fill="none" xmlns="http://www.w3.org/2000/svg">
<path d="M0.137784 14V0.909091H5.37926C6.34233 0.909091 7.1456 1.05185 7.78906 1.33736C8.43253 1.62287 8.91619 2.01918 9.24006 2.52628C9.56392 3.02912 9.72585 3.60866 9.72585 4.26491C9.72585 4.77628 9.62358 5.22585 9.41903 5.61364C9.21449 5.99716 8.93324 6.3125 8.57528 6.55966C8.22159 6.80256 7.81676 6.97514 7.3608 7.07741V7.20526C7.85938 7.22656 8.32599 7.36719 8.76065 7.62713C9.19957 7.88707 9.5554 8.25142 9.82812 8.72017C10.1009 9.18466 10.2372 9.73864 10.2372 10.3821C10.2372 11.0767 10.0646 11.6967 9.71946 12.2422C9.37855 12.7834 8.87358 13.2116 8.20455 13.527C7.53551 13.8423 6.71094 14 5.73082 14H0.137784ZM2.90554 11.7372H5.16193C5.93324 11.7372 6.49574 11.5902 6.84943 11.2962C7.20313 10.9979 7.37997 10.6016 7.37997 10.1072C7.37997 9.74503 7.29261 9.42543 7.1179 9.14844C6.94318 8.87145 6.69389 8.65412 6.37003 8.49645C6.05043 8.33878 5.66903 8.25994 5.22585 8.25994H2.90554V11.7372ZM2.90554 6.38707H4.95739C5.33665 6.38707 5.6733 6.32102 5.96733 6.18892C6.26563 6.05256 6.5 5.8608 6.67045 5.61364C6.84517 5.36648 6.93253 5.07031 6.93253 4.72514C6.93253 4.25213 6.7642 3.87074 6.42756 3.58097C6.09517 3.29119 5.62216 3.14631 5.00852 3.14631H2.90554V6.38707ZM11.987 14V4.18182H14.627V5.89489H14.7292C14.9082 5.28551 15.2086 4.82528 15.6305 4.5142C16.0524 4.19886 16.5382 4.04119 17.0879 4.04119C17.2243 4.04119 17.3713 4.04972 17.5289 4.06676C17.6866 4.08381 17.8251 4.10724 17.9444 4.13707V6.55327C17.8166 6.51491 17.6397 6.48082 17.4139 6.45099C17.188 6.42116 16.9814 6.40625 16.7939 6.40625C16.3933 6.40625 16.0353 6.49361 15.72 6.66832C15.4089 6.83878 15.1618 7.07741 14.9785 7.38423C14.7995 7.69105 14.71 8.04474 14.71 8.44531V14H11.987ZM25.6484 9.8196V4.18182H28.3714V14H25.7571V12.2166H25.6548C25.4332 12.7919 25.0646 13.2543 24.549 13.6037C24.0376 13.9531 23.4134 14.1278 22.6761 14.1278C22.0199 14.1278 21.4425 13.9787 20.9439 13.6804C20.4453 13.3821 20.0554 12.9581 19.7741 12.4084C19.4972 11.8587 19.3565 11.2003 19.3523 10.4332V4.18182H22.0753V9.94744C22.0795 10.527 22.2351 10.9851 22.5419 11.3217C22.8487 11.6584 23.2599 11.8267 23.7756 11.8267C24.1037 11.8267 24.4105 11.7521 24.696 11.603C24.9815 11.4496 25.2116 11.2237 25.3864 10.9254C25.5653 10.6271 25.6527 10.2585 25.6484 9.8196ZM33.2725 8.32386V14H30.5495V4.18182H33.1447V5.91406H33.2598C33.4771 5.34304 33.8414 4.89133 34.3528 4.55895C34.8642 4.2223 35.4842 4.05398 36.2129 4.05398C36.8947 4.05398 37.4892 4.20312 37.9963 4.50142C38.5034 4.79972 38.8976 5.22585 39.1788 5.77983C39.4601 6.32955 39.6007 6.9858 39.6007 7.74858V14H36.8777V8.23438C36.8819 7.63352 36.7285 7.16477 36.4174 6.82812C36.1064 6.48722 35.6781 6.31676 35.1326 6.31676C34.7662 6.31676 34.4423 6.3956 34.161 6.55327C33.8841 6.71094 33.6667 6.94105 33.5091 7.24361C33.3556 7.5419 33.2768 7.90199 33.2725 8.32386ZM46.1829 14.1918C45.19 14.1918 44.3313 13.9808 43.6069 13.5589C42.8867 13.1328 42.3306 12.5405 41.9386 11.782C41.5465 11.0192 41.3505 10.1349 41.3505 9.12926C41.3505 8.11506 41.5465 7.22869 41.9386 6.47017C42.3306 5.70739 42.8867 5.11506 43.6069 4.69318C44.3313 4.26705 45.19 4.05398 46.1829 4.05398C47.1758 4.05398 48.0323 4.26705 48.7525 4.69318C49.4769 5.11506 50.0352 5.70739 50.4272 6.47017C50.8192 7.22869 51.0153 8.11506 51.0153 9.12926C51.0153 10.1349 50.8192 11.0192 50.4272 11.782C50.0352 12.5405 49.4769 13.1328 48.7525 13.5589C48.0323 13.9808 47.1758 14.1918 46.1829 14.1918ZM46.1957 12.0824C46.6474 12.0824 47.0245 11.9545 47.3271 11.6989C47.6296 11.4389 47.8576 11.0852 48.011 10.6378C48.1687 10.1903 48.2475 9.68111 48.2475 9.11009C48.2475 8.53906 48.1687 8.02983 48.011 7.58239C47.8576 7.13494 47.6296 6.78125 47.3271 6.52131C47.0245 6.26136 46.6474 6.13139 46.1957 6.13139C45.7397 6.13139 45.3562 6.26136 45.0451 6.52131C44.7383 6.78125 44.506 7.13494 44.3484 7.58239C44.195 8.02983 44.1183 8.53906 44.1183 9.11009C44.1183 9.68111 44.195 10.1903 44.3484 10.6378C44.506 11.0852 44.7383 11.4389 45.0451 11.6989C45.3562 11.9545 45.7397 12.0824 46.1957 12.0824ZM57.003 14V0.909091H62.2445C63.2076 0.909091 64.0108 1.05185 64.6543 1.33736C65.2978 1.62287 65.7814 2.01918 66.1053 2.52628C66.4292 3.02912 66.5911 3.60866 66.5911 4.26491C66.5911 4.77628 66.4888 5.22585 66.2843 5.61364C66.0797 5.99716 65.7985 6.3125 65.4405 6.55966C65.0868 6.80256 64.682 6.97514 64.226 7.07741V7.20526C64.7246 7.22656 65.1912 7.36719 65.6259 7.62713C66.0648 7.88707 66.4206 8.25142 66.6934 8.72017C66.9661 9.18466 67.1025 9.73864 67.1025 10.3821C67.1025 11.0767 66.9299 11.6967 66.5847 12.2422C66.2438 12.7834 65.7388 13.2116 65.0698 13.527C64.4007 13.8423 63.5762 14 62.5961 14H57.003ZM59.7708 11.7372H62.0272C62.7985 11.7372 63.361 11.5902 63.7147 11.2962C64.0684 10.9979 64.2452 10.6016 64.2452 10.1072C64.2452 9.74503 64.1578 9.42543 63.9831 9.14844C63.8084 8.87145 63.5591 8.65412 63.2353 8.49645C62.9157 8.33878 62.5343 8.25994 62.0911 8.25994H59.7708V11.7372ZM59.7708 6.38707H61.8226C62.2019 6.38707 62.5385 6.32102 62.8326 6.18892C63.1309 6.05256 63.3652 5.8608 63.5357 5.61364C63.7104 5.36648 63.7978 5.07031 63.7978 4.72514C63.7978 4.25213 63.6294 3.87074 63.2928 3.58097C62.9604 3.29119 62.4874 3.14631 61.8738 3.14631H59.7708V6.38707ZM71.652 14.1854C71.0256 14.1854 70.4673 14.0767 69.9773 13.8594C69.4872 13.6378 69.0994 13.3118 68.8139 12.8814C68.5327 12.4467 68.392 11.9055 68.392 11.2578C68.392 10.7124 68.4922 10.2543 68.6925 9.88352C68.8928 9.51278 69.1655 9.21449 69.5107 8.98864C69.8558 8.76278 70.2479 8.59233 70.6868 8.47727C71.13 8.36222 71.5945 8.28125 72.0803 8.23438C72.6513 8.17472 73.1115 8.11932 73.4609 8.06818C73.8104 8.01278 74.0639 7.93182 74.2216 7.82528C74.3793 7.71875 74.4581 7.56108 74.4581 7.35227V7.31392C74.4581 6.90909 74.3303 6.59588 74.0746 6.37429C73.8232 6.1527 73.4652 6.0419 73.0007 6.0419C72.5107 6.0419 72.1207 6.15057 71.831 6.3679C71.5412 6.58097 71.3494 6.84943 71.2557 7.1733L68.7372 6.96875C68.8651 6.37216 69.1165 5.85653 69.4915 5.42188C69.8665 4.98295 70.3501 4.64631 70.9425 4.41193C71.5391 4.1733 72.2294 4.05398 73.0135 4.05398C73.5589 4.05398 74.081 4.1179 74.5795 4.24574C75.0824 4.37358 75.5277 4.57173 75.9155 4.8402C76.3075 5.10866 76.6165 5.45384 76.8423 5.87571C77.0682 6.29332 77.1811 6.79403 77.1811 7.37784V14H74.5987V12.6385H74.522C74.3643 12.9453 74.1534 13.2159 73.8892 13.4503C73.625 13.6804 73.3075 13.8615 72.9368 13.9936C72.5661 14.1214 72.1378 14.1854 71.652 14.1854ZM72.4318 12.3061C72.8324 12.3061 73.1861 12.2273 73.4929 12.0696C73.7997 11.9077 74.0405 11.6903 74.2152 11.4176C74.3899 11.1449 74.4773 10.8359 74.4773 10.4908V9.44886C74.392 9.50426 74.2749 9.5554 74.1257 9.60227C73.9808 9.64489 73.8168 9.68537 73.6335 9.72372C73.4503 9.75781 73.267 9.78977 73.0838 9.8196C72.9006 9.84517 72.7344 9.86861 72.5852 9.88991C72.2656 9.93679 71.9865 10.0114 71.7479 10.1136C71.5092 10.2159 71.3239 10.3544 71.1918 10.5291C71.0597 10.6996 70.9936 10.9126 70.9936 11.1683C70.9936 11.5391 71.1278 11.8224 71.3963 12.0185C71.669 12.2102 72.0142 12.3061 72.4318 12.3061ZM79.2937 14V4.18182H81.9336V5.89489H82.0359C82.2148 5.28551 82.5153 4.82528 82.9371 4.5142C83.359 4.19886 83.8448 4.04119 84.3945 4.04119C84.5309 4.04119 84.6779 4.04972 84.8356 4.06676C84.9933 4.08381 85.1317 4.10724 85.2511 4.13707V6.55327C85.1232 6.51491 84.9464 6.48082 84.7205 6.45099C84.4947 6.42116 84.288 6.40625 84.1005 6.40625C83.6999 6.40625 83.342 6.49361 83.0266 6.66832C82.7156 6.83878 82.4684 7.07741 82.2852 7.38423C82.1062 7.69105 82.0167 8.04474 82.0167 8.44531V14H79.2937ZM90.638 14.1918C89.6323 14.1918 88.7672 13.9787 88.0428 13.5526C87.3226 13.1222 86.7686 12.5256 86.3809 11.7628C85.9973 11 85.8056 10.1222 85.8056 9.12926C85.8056 8.12358 85.9995 7.24148 86.3873 6.48295C86.7793 5.72017 87.3354 5.12571 88.0556 4.69957C88.7757 4.26918 89.6323 4.05398 90.6252 4.05398C91.4817 4.05398 92.2317 4.20952 92.8752 4.5206C93.5186 4.83168 94.0279 5.26847 94.4029 5.83097C94.7779 6.39347 94.9846 7.05398 95.0229 7.8125H92.4533C92.3809 7.32244 92.1891 6.92827 91.878 6.62997C91.5712 6.32741 91.1685 6.17614 90.6699 6.17614C90.248 6.17614 89.8794 6.29119 89.5641 6.52131C89.253 6.74716 89.0101 7.07741 88.8354 7.51207C88.6607 7.94673 88.5733 8.47301 88.5733 9.09091C88.5733 9.71733 88.6586 10.25 88.829 10.6889C89.0037 11.1278 89.2488 11.4624 89.5641 11.6925C89.8794 11.9226 90.248 12.0376 90.6699 12.0376C90.981 12.0376 91.2601 11.9737 91.5073 11.8459C91.7587 11.718 91.9654 11.5327 92.1273 11.2898C92.2935 11.0426 92.4022 10.7464 92.4533 10.4013H95.0229C94.9803 11.1513 94.7757 11.8118 94.4093 12.3828C94.0471 12.9496 93.5463 13.3928 92.9071 13.7124C92.2679 14.032 91.5115 14.1918 90.638 14.1918ZM101.241 14.1918C100.231 14.1918 99.3615 13.9872 98.6328 13.5781C97.9084 13.1648 97.3501 12.581 96.9581 11.8267C96.5661 11.0682 96.37 10.1712 96.37 9.13565C96.37 8.12571 96.5661 7.23935 96.9581 6.47656C97.3501 5.71378 97.902 5.11932 98.6136 4.69318C99.3295 4.26705 100.169 4.05398 101.132 4.05398C101.78 4.05398 102.383 4.15838 102.941 4.36719C103.504 4.57173 103.994 4.88068 104.411 5.29403C104.833 5.70739 105.161 6.22727 105.396 6.85369C105.63 7.47585 105.747 8.20455 105.747 9.03977V9.78764H97.4567V8.10014H103.184C103.184 7.7081 103.099 7.3608 102.928 7.05824C102.758 6.75568 102.521 6.51918 102.219 6.34872C101.92 6.17401 101.573 6.08665 101.177 6.08665C100.763 6.08665 100.397 6.18253 100.077 6.37429C99.7621 6.56179 99.5149 6.81534 99.3359 7.13494C99.157 7.45028 99.0653 7.80185 99.0611 8.18963V9.79403C99.0611 10.2798 99.1506 10.6996 99.3295 11.0533C99.5128 11.407 99.7706 11.6797 100.103 11.8714C100.435 12.0632 100.83 12.1591 101.286 12.1591C101.588 12.1591 101.865 12.1165 102.116 12.0312C102.368 11.946 102.583 11.8182 102.762 11.6477C102.941 11.4773 103.077 11.2685 103.171 11.0213L105.69 11.1875C105.562 11.7926 105.3 12.321 104.903 12.7727C104.511 13.2202 104.004 13.5696 103.382 13.821C102.764 14.0682 102.05 14.1918 101.241 14.1918ZM110.247 0.909091V14H107.524V0.909091H110.247ZM115.151 0.909091V14H112.428V0.909091H115.151ZM121.769 14.1918C120.776 14.1918 119.917 13.9808 119.193 13.5589C118.473 13.1328 117.917 12.5405 117.525 11.782C117.132 11.0192 116.936 10.1349 116.936 9.12926C116.936 8.11506 117.132 7.22869 117.525 6.47017C117.917 5.70739 118.473 5.11506 119.193 4.69318C119.917 4.26705 120.776 4.05398 121.769 4.05398C122.762 4.05398 123.618 4.26705 124.338 4.69318C125.063 5.11506 125.621 5.70739 126.013 6.47017C126.405 7.22869 126.601 8.11506 126.601 9.12926C126.601 10.1349 126.405 11.0192 126.013 11.782C125.621 12.5405 125.063 13.1328 124.338 13.5589C123.618 13.9808 122.762 14.1918 121.769 14.1918ZM121.782 12.0824C122.233 12.0824 122.61 11.9545 122.913 11.6989C123.216 11.4389 123.444 11.0852 123.597 10.6378C123.755 10.1903 123.833 9.68111 123.833 9.11009C123.833 8.53906 123.755 8.02983 123.597 7.58239C123.444 7.13494 123.216 6.78125 122.913 6.52131C122.61 6.26136 122.233 6.13139 121.782 6.13139C121.326 6.13139 120.942 6.26136 120.631 6.52131C120.324 6.78125 120.092 7.13494 119.934 7.58239C119.781 8.02983 119.704 8.53906 119.704 9.11009C119.704 9.68111 119.781 10.1903 119.934 10.6378C120.092 11.0852 120.324 11.4389 120.631 11.6989C120.942 11.9545 121.326 12.0824 121.782 12.0824ZM136.541 6.98153L134.048 7.13494C134.005 6.92187 133.914 6.73011 133.773 6.55966C133.632 6.38494 133.447 6.24645 133.217 6.14418C132.991 6.03764 132.721 5.98438 132.405 5.98438C131.983 5.98438 131.627 6.07386 131.338 6.25284C131.048 6.42756 130.903 6.66193 130.903 6.95597C130.903 7.19034 130.997 7.38849 131.184 7.55043C131.372 7.71236 131.694 7.84233 132.15 7.94034L133.926 8.2983C134.881 8.49432 135.593 8.80966 136.061 9.24432C136.53 9.67898 136.765 10.25 136.765 10.9574C136.765 11.6009 136.575 12.1655 136.196 12.6513C135.821 13.1371 135.305 13.5163 134.649 13.7891C133.997 14.0575 133.245 14.1918 132.392 14.1918C131.093 14.1918 130.057 13.9212 129.286 13.38C128.519 12.8345 128.069 12.093 127.937 11.1555L130.615 11.0149C130.696 11.4112 130.892 11.7138 131.203 11.9226C131.515 12.1271 131.913 12.2294 132.399 12.2294C132.876 12.2294 133.26 12.1378 133.549 11.9545C133.843 11.767 133.993 11.5263 133.997 11.2322C133.993 10.9851 133.888 10.7827 133.684 10.625C133.479 10.4631 133.164 10.3395 132.738 10.2543L131.037 9.91548C130.078 9.72372 129.365 9.39134 128.896 8.91832C128.431 8.44531 128.199 7.84233 128.199 7.10938C128.199 6.47869 128.37 5.93537 128.711 5.4794C129.056 5.02344 129.539 4.67188 130.162 4.42472C130.788 4.17756 131.521 4.05398 132.36 4.05398C133.6 4.05398 134.576 4.31605 135.288 4.8402C136.004 5.36435 136.422 6.07812 136.541 6.98153Z" fill="white"/>
</svg>
